<mxfile host="app.diagrams.net" agent="Mozilla/5.0 (Windows NT 10.0; Win64; x64) AppleWebKit/537.36 (KHTML, like Gecko) Chrome/131.0.0.0 Safari/537.36" version="24.8.9" pages="2">
  <diagram id="G6A0pbMdD7xdXcbIIawS" name="Page-1">
    <mxGraphModel dx="4522" dy="2661" grid="1" gridSize="10" guides="1" tooltips="1" connect="1" arrows="1" fold="1" page="1" pageScale="1" pageWidth="827" pageHeight="1169" math="0" shadow="0">
      <root>
        <mxCell id="0" />
        <mxCell id="1" parent="0" />
        <mxCell id="nuQ9qfcuOtzx04qTKdnB-2" value="" style="rounded=0;whiteSpace=wrap;html=1;fillColor=#d5e8d4;strokeColor=#82b366;" parent="1" vertex="1">
          <mxGeometry x="-1200" y="-430" width="1360" height="650" as="geometry" />
        </mxCell>
        <mxCell id="QHiHHKqtbSbCYApLtpWq-10" value="" style="rounded=0;whiteSpace=wrap;html=1;fillColor=#f5f5f5;fontColor=#333333;strokeColor=#666666;" vertex="1" parent="1">
          <mxGeometry x="-1119.12" y="-390" width="490" height="540" as="geometry" />
        </mxCell>
        <mxCell id="nuQ9qfcuOtzx04qTKdnB-1" value="" style="rounded=0;whiteSpace=wrap;html=1;fillColor=#dae8fc;strokeColor=#6c8ebf;" parent="1" vertex="1">
          <mxGeometry x="210" y="-190" width="370" height="250" as="geometry" />
        </mxCell>
        <mxCell id="dnGgp1YoJP_r4CT0bj4k-2" value="" style="rounded=0;whiteSpace=wrap;html=1;fillColor=#f5f5f5;gradientColor=#b3b3b3;strokeColor=#666666;" parent="1" vertex="1">
          <mxGeometry x="826" y="-190" width="597" height="420" as="geometry" />
        </mxCell>
        <mxCell id="dnGgp1YoJP_r4CT0bj4k-7" style="edgeStyle=orthogonalEdgeStyle;rounded=0;orthogonalLoop=1;jettySize=auto;html=1;entryX=0;entryY=0;entryDx=0;entryDy=0;" parent="1" source="dnGgp1YoJP_r4CT0bj4k-8" target="89C8UJNl7Bzz-WB_jbeR-12" edge="1">
          <mxGeometry relative="1" as="geometry">
            <Array as="points">
              <mxPoint x="-320" y="-180" />
              <mxPoint x="-320" y="-110" />
            </Array>
          </mxGeometry>
        </mxCell>
        <mxCell id="dnGgp1YoJP_r4CT0bj4k-9" style="edgeStyle=orthogonalEdgeStyle;rounded=0;orthogonalLoop=1;jettySize=auto;html=1;entryX=0;entryY=0.5;entryDx=0;entryDy=0;startArrow=oval;startFill=1;" parent="1" target="dnGgp1YoJP_r4CT0bj4k-56" edge="1">
          <mxGeometry relative="1" as="geometry">
            <mxPoint x="-110" y="-100" as="sourcePoint" />
            <mxPoint x="-60" y="-100" as="targetPoint" />
          </mxGeometry>
        </mxCell>
        <mxCell id="dnGgp1YoJP_r4CT0bj4k-10" style="edgeStyle=orthogonalEdgeStyle;rounded=0;orthogonalLoop=1;jettySize=auto;html=1;entryX=1;entryY=0.5;entryDx=0;entryDy=0;startArrow=oval;startFill=1;" parent="1" target="dnGgp1YoJP_r4CT0bj4k-17" edge="1">
          <mxGeometry relative="1" as="geometry">
            <Array as="points">
              <mxPoint x="-130" y="-100" />
              <mxPoint x="-130" y="-290" />
            </Array>
            <mxPoint x="-130" y="-100" as="sourcePoint" />
          </mxGeometry>
        </mxCell>
        <mxCell id="ghZuQEyI45yuM-qopNc8-23" style="edgeStyle=orthogonalEdgeStyle;rounded=0;orthogonalLoop=1;jettySize=auto;html=1;entryX=0.5;entryY=0;entryDx=0;entryDy=0;" parent="1" source="dnGgp1YoJP_r4CT0bj4k-11" target="ghZuQEyI45yuM-qopNc8-25" edge="1">
          <mxGeometry relative="1" as="geometry">
            <mxPoint x="340" y="-250" as="targetPoint" />
            <Array as="points">
              <mxPoint x="-110" y="-100" />
              <mxPoint x="-110" y="-290" />
              <mxPoint x="610" y="-290" />
            </Array>
          </mxGeometry>
        </mxCell>
        <mxCell id="QHiHHKqtbSbCYApLtpWq-9" style="edgeStyle=orthogonalEdgeStyle;rounded=0;orthogonalLoop=1;jettySize=auto;html=1;entryX=0.5;entryY=0;entryDx=0;entryDy=0;" edge="1" parent="1" source="dnGgp1YoJP_r4CT0bj4k-15" target="jtOmIqLI8az2b44zHoy8-36">
          <mxGeometry relative="1" as="geometry">
            <mxPoint x="-650" y="-190" as="targetPoint" />
          </mxGeometry>
        </mxCell>
        <mxCell id="dnGgp1YoJP_r4CT0bj4k-15" value="" style="triangle;whiteSpace=wrap;html=1;align=left;rotation=-180;" parent="1" vertex="1">
          <mxGeometry x="-420" y="-319.75" width="60" height="60" as="geometry" />
        </mxCell>
        <mxCell id="dnGgp1YoJP_r4CT0bj4k-17" value="C" style="text;html=1;align=center;verticalAlign=middle;whiteSpace=wrap;rounded=0;" parent="1" vertex="1">
          <mxGeometry x="-400" y="-304.75" width="40" height="30" as="geometry" />
        </mxCell>
        <mxCell id="QHiHHKqtbSbCYApLtpWq-6" style="edgeStyle=orthogonalEdgeStyle;rounded=0;orthogonalLoop=1;jettySize=auto;html=1;entryX=0.5;entryY=1;entryDx=0;entryDy=0;" edge="1" parent="1" source="dnGgp1YoJP_r4CT0bj4k-19" target="jtOmIqLI8az2b44zHoy8-16">
          <mxGeometry relative="1" as="geometry" />
        </mxCell>
        <mxCell id="dnGgp1YoJP_r4CT0bj4k-19" value="F(x)" style="rounded=0;whiteSpace=wrap;html=1;" parent="1" vertex="1">
          <mxGeometry x="-414" y="150" width="80" height="60" as="geometry" />
        </mxCell>
        <mxCell id="dnGgp1YoJP_r4CT0bj4k-23" style="edgeStyle=orthogonalEdgeStyle;rounded=0;orthogonalLoop=1;jettySize=auto;html=1;entryX=0;entryY=0.5;entryDx=0;entryDy=0;exitX=1;exitY=0.5;exitDx=0;exitDy=0;" parent="1" source="ghZuQEyI45yuM-qopNc8-25" target="dnGgp1YoJP_r4CT0bj4k-37" edge="1">
          <mxGeometry relative="1" as="geometry">
            <mxPoint x="820" y="-100" as="sourcePoint" />
          </mxGeometry>
        </mxCell>
        <mxCell id="dnGgp1YoJP_r4CT0bj4k-26" style="edgeStyle=orthogonalEdgeStyle;rounded=0;orthogonalLoop=1;jettySize=auto;html=1;entryX=1;entryY=0.5;entryDx=0;entryDy=0;" parent="1" source="dnGgp1YoJP_r4CT0bj4k-27" target="dnGgp1YoJP_r4CT0bj4k-19" edge="1">
          <mxGeometry relative="1" as="geometry" />
        </mxCell>
        <mxCell id="dnGgp1YoJP_r4CT0bj4k-59" style="edgeStyle=orthogonalEdgeStyle;rounded=0;orthogonalLoop=1;jettySize=auto;html=1;entryX=0.5;entryY=1;entryDx=0;entryDy=0;startArrow=oval;startFill=1;" parent="1" target="dnGgp1YoJP_r4CT0bj4k-58" edge="1">
          <mxGeometry relative="1" as="geometry">
            <mxPoint x="250" y="181" as="sourcePoint" />
          </mxGeometry>
        </mxCell>
        <mxCell id="dnGgp1YoJP_r4CT0bj4k-27" value="Pos" style="rounded=0;whiteSpace=wrap;html=1;" parent="1" vertex="1">
          <mxGeometry x="896" y="150" width="80" height="60" as="geometry" />
        </mxCell>
        <mxCell id="dnGgp1YoJP_r4CT0bj4k-28" style="edgeStyle=orthogonalEdgeStyle;rounded=0;orthogonalLoop=1;jettySize=auto;html=1;entryX=0;entryY=0.5;entryDx=0;entryDy=0;" parent="1" source="dnGgp1YoJP_r4CT0bj4k-29" target="dnGgp1YoJP_r4CT0bj4k-39" edge="1">
          <mxGeometry relative="1" as="geometry" />
        </mxCell>
        <mxCell id="dnGgp1YoJP_r4CT0bj4k-29" value="Velocity&lt;div&gt;Controller&lt;/div&gt;" style="rounded=0;whiteSpace=wrap;html=1;" parent="1" vertex="1">
          <mxGeometry x="900" y="-130" width="80" height="60" as="geometry" />
        </mxCell>
        <mxCell id="dnGgp1YoJP_r4CT0bj4k-30" style="edgeStyle=orthogonalEdgeStyle;rounded=0;orthogonalLoop=1;jettySize=auto;html=1;entryX=0;entryY=0.5;entryDx=0;entryDy=0;" parent="1" source="dnGgp1YoJP_r4CT0bj4k-31" target="dnGgp1YoJP_r4CT0bj4k-35" edge="1">
          <mxGeometry relative="1" as="geometry">
            <mxPoint x="1220" y="-100" as="targetPoint" />
            <Array as="points">
              <mxPoint x="1180" y="-100" />
              <mxPoint x="1190" y="-99" />
            </Array>
          </mxGeometry>
        </mxCell>
        <mxCell id="dnGgp1YoJP_r4CT0bj4k-31" value="Current&lt;div&gt;Controller&lt;/div&gt;" style="rounded=0;whiteSpace=wrap;html=1;" parent="1" vertex="1">
          <mxGeometry x="1060" y="-130" width="80" height="60" as="geometry" />
        </mxCell>
        <mxCell id="dnGgp1YoJP_r4CT0bj4k-32" style="edgeStyle=orthogonalEdgeStyle;rounded=0;orthogonalLoop=1;jettySize=auto;html=1;entryX=1;entryY=0.5;entryDx=0;entryDy=0;exitX=1;exitY=0.25;exitDx=0;exitDy=0;" parent="1" source="dnGgp1YoJP_r4CT0bj4k-35" target="dnGgp1YoJP_r4CT0bj4k-27" edge="1">
          <mxGeometry relative="1" as="geometry">
            <Array as="points">
              <mxPoint x="1393" y="-120" />
              <mxPoint x="1393" y="180" />
            </Array>
          </mxGeometry>
        </mxCell>
        <mxCell id="dnGgp1YoJP_r4CT0bj4k-33" style="edgeStyle=orthogonalEdgeStyle;rounded=0;orthogonalLoop=1;jettySize=auto;html=1;entryX=1;entryY=0.5;entryDx=0;entryDy=0;exitX=1;exitY=0.75;exitDx=0;exitDy=0;" parent="1" source="dnGgp1YoJP_r4CT0bj4k-35" target="dnGgp1YoJP_r4CT0bj4k-45" edge="1">
          <mxGeometry relative="1" as="geometry">
            <Array as="points">
              <mxPoint x="1353" y="-80" />
              <mxPoint x="1353" />
            </Array>
          </mxGeometry>
        </mxCell>
        <mxCell id="dnGgp1YoJP_r4CT0bj4k-34" style="edgeStyle=orthogonalEdgeStyle;rounded=0;orthogonalLoop=1;jettySize=auto;html=1;entryX=1;entryY=0.5;entryDx=0;entryDy=0;" parent="1" source="dnGgp1YoJP_r4CT0bj4k-35" target="dnGgp1YoJP_r4CT0bj4k-43" edge="1">
          <mxGeometry relative="1" as="geometry">
            <Array as="points">
              <mxPoint x="1373" y="-100" />
              <mxPoint x="1373" y="100" />
            </Array>
          </mxGeometry>
        </mxCell>
        <mxCell id="dnGgp1YoJP_r4CT0bj4k-35" value="Plant" style="rounded=0;whiteSpace=wrap;html=1;" parent="1" vertex="1">
          <mxGeometry x="1190" y="-140" width="120" height="80" as="geometry" />
        </mxCell>
        <mxCell id="dnGgp1YoJP_r4CT0bj4k-36" style="edgeStyle=orthogonalEdgeStyle;rounded=0;orthogonalLoop=1;jettySize=auto;html=1;entryX=0;entryY=0.5;entryDx=0;entryDy=0;" parent="1" source="dnGgp1YoJP_r4CT0bj4k-37" target="dnGgp1YoJP_r4CT0bj4k-29" edge="1">
          <mxGeometry relative="1" as="geometry" />
        </mxCell>
        <mxCell id="dnGgp1YoJP_r4CT0bj4k-37" value="" style="ellipse;whiteSpace=wrap;html=1;aspect=fixed;" parent="1" vertex="1">
          <mxGeometry x="853" y="-110" width="20" height="20" as="geometry" />
        </mxCell>
        <mxCell id="dnGgp1YoJP_r4CT0bj4k-38" style="edgeStyle=orthogonalEdgeStyle;rounded=0;orthogonalLoop=1;jettySize=auto;html=1;entryX=0;entryY=0.5;entryDx=0;entryDy=0;" parent="1" source="dnGgp1YoJP_r4CT0bj4k-39" target="dnGgp1YoJP_r4CT0bj4k-31" edge="1">
          <mxGeometry relative="1" as="geometry" />
        </mxCell>
        <mxCell id="dnGgp1YoJP_r4CT0bj4k-39" value="" style="ellipse;whiteSpace=wrap;html=1;aspect=fixed;" parent="1" vertex="1">
          <mxGeometry x="1013" y="-110" width="20" height="20" as="geometry" />
        </mxCell>
        <mxCell id="dnGgp1YoJP_r4CT0bj4k-42" style="edgeStyle=orthogonalEdgeStyle;rounded=0;orthogonalLoop=1;jettySize=auto;html=1;entryX=0.5;entryY=1;entryDx=0;entryDy=0;" parent="1" source="dnGgp1YoJP_r4CT0bj4k-43" target="dnGgp1YoJP_r4CT0bj4k-37" edge="1">
          <mxGeometry relative="1" as="geometry" />
        </mxCell>
        <mxCell id="dnGgp1YoJP_r4CT0bj4k-43" value="Velocity" style="rounded=0;whiteSpace=wrap;html=1;" parent="1" vertex="1">
          <mxGeometry x="900" y="70" width="80" height="60" as="geometry" />
        </mxCell>
        <mxCell id="dnGgp1YoJP_r4CT0bj4k-44" style="edgeStyle=orthogonalEdgeStyle;rounded=0;orthogonalLoop=1;jettySize=auto;html=1;entryX=0.5;entryY=1;entryDx=0;entryDy=0;" parent="1" source="dnGgp1YoJP_r4CT0bj4k-45" target="dnGgp1YoJP_r4CT0bj4k-39" edge="1">
          <mxGeometry relative="1" as="geometry" />
        </mxCell>
        <mxCell id="dnGgp1YoJP_r4CT0bj4k-45" value="Current" style="rounded=0;whiteSpace=wrap;html=1;" parent="1" vertex="1">
          <mxGeometry x="1060" y="-30" width="80" height="60" as="geometry" />
        </mxCell>
        <mxCell id="dnGgp1YoJP_r4CT0bj4k-46" value="Ref&lt;div&gt;Acc&lt;/div&gt;" style="text;html=1;align=center;verticalAlign=middle;whiteSpace=wrap;rounded=0;" parent="1" vertex="1">
          <mxGeometry x="-360" y="-210" width="60" height="30" as="geometry" />
        </mxCell>
        <mxCell id="dnGgp1YoJP_r4CT0bj4k-47" value="Ref&lt;div&gt;Vel&lt;/div&gt;" style="text;html=1;align=center;verticalAlign=middle;whiteSpace=wrap;rounded=0;" parent="1" vertex="1">
          <mxGeometry x="-180" y="-140" width="60" height="30" as="geometry" />
        </mxCell>
        <mxCell id="dnGgp1YoJP_r4CT0bj4k-49" value="Damping&lt;div&gt;Force&lt;/div&gt;" style="text;html=1;align=center;verticalAlign=middle;whiteSpace=wrap;rounded=0;" parent="1" vertex="1">
          <mxGeometry x="-490" y="-319.75" width="60" height="30" as="geometry" />
        </mxCell>
        <mxCell id="dnGgp1YoJP_r4CT0bj4k-50" value="Spring&lt;div&gt;Force&lt;/div&gt;" style="text;html=1;align=center;verticalAlign=middle;whiteSpace=wrap;rounded=0;" parent="1" vertex="1">
          <mxGeometry x="-480" y="145" width="60" height="30" as="geometry" />
        </mxCell>
        <mxCell id="dnGgp1YoJP_r4CT0bj4k-57" style="edgeStyle=orthogonalEdgeStyle;rounded=0;orthogonalLoop=1;jettySize=auto;html=1;entryX=0.5;entryY=1;entryDx=0;entryDy=0;" parent="1" source="dnGgp1YoJP_r4CT0bj4k-58" target="dnGgp1YoJP_r4CT0bj4k-58" edge="1">
          <mxGeometry relative="1" as="geometry">
            <mxPoint x="260" y="-100" as="targetPoint" />
            <Array as="points">
              <mxPoint x="250" y="-90" />
              <mxPoint x="250" y="-90" />
            </Array>
          </mxGeometry>
        </mxCell>
        <mxCell id="dnGgp1YoJP_r4CT0bj4k-56" value="1/S" style="rounded=0;whiteSpace=wrap;html=1;" parent="1" vertex="1">
          <mxGeometry x="-77" y="-130" width="80" height="60" as="geometry" />
        </mxCell>
        <mxCell id="dnGgp1YoJP_r4CT0bj4k-63" style="edgeStyle=orthogonalEdgeStyle;rounded=0;orthogonalLoop=1;jettySize=auto;html=1;entryX=0;entryY=0.5;entryDx=0;entryDy=0;" parent="1" source="dnGgp1YoJP_r4CT0bj4k-58" edge="1">
          <mxGeometry relative="1" as="geometry">
            <mxPoint x="310" y="-100" as="targetPoint" />
          </mxGeometry>
        </mxCell>
        <mxCell id="dnGgp1YoJP_r4CT0bj4k-67" style="edgeStyle=orthogonalEdgeStyle;rounded=0;orthogonalLoop=1;jettySize=auto;html=1;entryX=0;entryY=0;entryDx=0;entryDy=0;startArrow=oval;startFill=1;" parent="1" edge="1">
          <mxGeometry relative="1" as="geometry">
            <mxPoint x="360" y="-100" as="sourcePoint" />
            <mxPoint x="550" y="-100" as="targetPoint" />
            <Array as="points">
              <mxPoint x="410" y="-100" />
              <mxPoint x="410" y="-100" />
            </Array>
          </mxGeometry>
        </mxCell>
        <mxCell id="dnGgp1YoJP_r4CT0bj4k-68" value="Ref&lt;div&gt;Pos&lt;/div&gt;" style="text;html=1;align=center;verticalAlign=middle;whiteSpace=wrap;rounded=0;" parent="1" vertex="1">
          <mxGeometry x="150" y="-135" width="60" height="30" as="geometry" />
        </mxCell>
        <mxCell id="ghZuQEyI45yuM-qopNc8-1" value="Corrected&lt;div&gt;Ref&lt;div&gt;Vel&lt;/div&gt;&lt;/div&gt;" style="text;html=1;align=center;verticalAlign=middle;whiteSpace=wrap;rounded=0;" parent="1" vertex="1">
          <mxGeometry x="680" y="-140" width="70" height="30" as="geometry" />
        </mxCell>
        <mxCell id="ghZuQEyI45yuM-qopNc8-2" value="1/S" style="rounded=0;whiteSpace=wrap;html=1;" parent="1" vertex="1">
          <mxGeometry x="460" y="-30" width="80" height="60" as="geometry" />
        </mxCell>
        <mxCell id="ghZuQEyI45yuM-qopNc8-8" style="edgeStyle=orthogonalEdgeStyle;rounded=0;orthogonalLoop=1;jettySize=auto;html=1;entryX=0;entryY=0.5;entryDx=0;entryDy=0;" parent="1" source="ghZuQEyI45yuM-qopNc8-3" target="ghZuQEyI45yuM-qopNc8-2" edge="1">
          <mxGeometry relative="1" as="geometry" />
        </mxCell>
        <mxCell id="ghZuQEyI45yuM-qopNc8-3" value="" style="triangle;whiteSpace=wrap;html=1;align=left;" parent="1" vertex="1">
          <mxGeometry x="380" y="-30" width="60" height="60" as="geometry" />
        </mxCell>
        <mxCell id="ghZuQEyI45yuM-qopNc8-4" value="1" style="text;html=1;align=center;verticalAlign=middle;whiteSpace=wrap;rounded=0;" parent="1" vertex="1">
          <mxGeometry x="390" y="-15" width="30" height="30" as="geometry" />
        </mxCell>
        <mxCell id="ghZuQEyI45yuM-qopNc8-7" style="edgeStyle=orthogonalEdgeStyle;rounded=0;orthogonalLoop=1;jettySize=auto;html=1;entryX=0;entryY=0.5;entryDx=0;entryDy=0;" parent="1" source="ghZuQEyI45yuM-qopNc8-5" target="ghZuQEyI45yuM-qopNc8-3" edge="1">
          <mxGeometry relative="1" as="geometry">
            <Array as="points">
              <mxPoint x="360" y="-100" />
              <mxPoint x="360" />
            </Array>
          </mxGeometry>
        </mxCell>
        <mxCell id="ghZuQEyI45yuM-qopNc8-5" value="" style="triangle;whiteSpace=wrap;html=1;align=left;" parent="1" vertex="1">
          <mxGeometry x="280" y="-130" width="60" height="60" as="geometry" />
        </mxCell>
        <mxCell id="ghZuQEyI45yuM-qopNc8-6" value="1" style="text;html=1;align=center;verticalAlign=middle;whiteSpace=wrap;rounded=0;" parent="1" vertex="1">
          <mxGeometry x="290" y="-115" width="30" height="30" as="geometry" />
        </mxCell>
        <mxCell id="ghZuQEyI45yuM-qopNc8-9" style="edgeStyle=orthogonalEdgeStyle;rounded=0;orthogonalLoop=1;jettySize=auto;html=1;entryX=0.5;entryY=1;entryDx=0;entryDy=0;" parent="1" source="ghZuQEyI45yuM-qopNc8-2" edge="1">
          <mxGeometry relative="1" as="geometry">
            <mxPoint x="560" y="-90" as="targetPoint" />
            <Array as="points">
              <mxPoint x="560" />
            </Array>
          </mxGeometry>
        </mxCell>
        <mxCell id="ghZuQEyI45yuM-qopNc8-11" value="" style="edgeStyle=orthogonalEdgeStyle;rounded=0;orthogonalLoop=1;jettySize=auto;html=1;" parent="1" source="0XD9k7tak5M0PMO-EuPi-1" target="dnGgp1YoJP_r4CT0bj4k-58" edge="1">
          <mxGeometry relative="1" as="geometry">
            <mxPoint x="260" y="-100" as="targetPoint" />
            <mxPoint x="193" y="-100" as="sourcePoint" />
          </mxGeometry>
        </mxCell>
        <mxCell id="dnGgp1YoJP_r4CT0bj4k-58" value="" style="ellipse;whiteSpace=wrap;html=1;aspect=fixed;" parent="1" vertex="1">
          <mxGeometry x="240" y="-110" width="20" height="20" as="geometry" />
        </mxCell>
        <mxCell id="ghZuQEyI45yuM-qopNc8-13" value="+" style="text;html=1;align=center;verticalAlign=middle;whiteSpace=wrap;rounded=0;" parent="1" vertex="1">
          <mxGeometry x="234" y="-105" width="20" height="10" as="geometry" />
        </mxCell>
        <mxCell id="ghZuQEyI45yuM-qopNc8-16" value="+" style="text;html=1;align=center;verticalAlign=middle;whiteSpace=wrap;rounded=0;" parent="1" vertex="1">
          <mxGeometry x="848" y="-105" width="20" height="10" as="geometry" />
        </mxCell>
        <mxCell id="ghZuQEyI45yuM-qopNc8-18" value="-" style="text;html=1;align=center;verticalAlign=middle;whiteSpace=wrap;rounded=0;" parent="1" vertex="1">
          <mxGeometry x="240" y="-100" width="20" height="10" as="geometry" />
        </mxCell>
        <mxCell id="ghZuQEyI45yuM-qopNc8-19" value="-" style="text;html=1;align=center;verticalAlign=middle;whiteSpace=wrap;rounded=0;" parent="1" vertex="1">
          <mxGeometry x="853" y="-100" width="20" height="10" as="geometry" />
        </mxCell>
        <mxCell id="ghZuQEyI45yuM-qopNc8-21" value="+" style="text;html=1;align=center;verticalAlign=middle;whiteSpace=wrap;rounded=0;" parent="1" vertex="1">
          <mxGeometry x="1008" y="-105" width="20" height="10" as="geometry" />
        </mxCell>
        <mxCell id="ghZuQEyI45yuM-qopNc8-22" value="-" style="text;html=1;align=center;verticalAlign=middle;whiteSpace=wrap;rounded=0;" parent="1" vertex="1">
          <mxGeometry x="1013" y="-100" width="20" height="10" as="geometry" />
        </mxCell>
        <mxCell id="ghZuQEyI45yuM-qopNc8-26" value="" style="edgeStyle=orthogonalEdgeStyle;rounded=0;orthogonalLoop=1;jettySize=auto;html=1;entryX=0;entryY=0.5;entryDx=0;entryDy=0;exitX=1;exitY=0.5;exitDx=0;exitDy=0;" parent="1" target="ghZuQEyI45yuM-qopNc8-25" edge="1">
          <mxGeometry relative="1" as="geometry">
            <mxPoint x="569.9999999999991" y="-100" as="sourcePoint" />
            <mxPoint x="703" y="-100" as="targetPoint" />
          </mxGeometry>
        </mxCell>
        <mxCell id="ghZuQEyI45yuM-qopNc8-25" value="" style="ellipse;whiteSpace=wrap;html=1;aspect=fixed;" parent="1" vertex="1">
          <mxGeometry x="600" y="-110" width="20" height="20" as="geometry" />
        </mxCell>
        <mxCell id="ghZuQEyI45yuM-qopNc8-28" value="Position Controller" style="rounded=0;whiteSpace=wrap;html=1;" parent="1" vertex="1">
          <mxGeometry x="360" y="-190" width="120" height="20" as="geometry" />
        </mxCell>
        <mxCell id="ghZuQEyI45yuM-qopNc8-29" value="+" style="text;html=1;align=center;verticalAlign=middle;whiteSpace=wrap;rounded=0;" parent="1" vertex="1">
          <mxGeometry x="595" y="-105" width="20" height="10" as="geometry" />
        </mxCell>
        <mxCell id="ghZuQEyI45yuM-qopNc8-30" value="+" style="text;html=1;align=center;verticalAlign=middle;whiteSpace=wrap;rounded=0;" parent="1" vertex="1">
          <mxGeometry x="600" y="-110" width="20" height="10" as="geometry" />
        </mxCell>
        <mxCell id="nuQ9qfcuOtzx04qTKdnB-3" value="Reference Model" style="rounded=0;whiteSpace=wrap;html=1;" parent="1" vertex="1">
          <mxGeometry x="-645.12" y="-420" width="120" height="20" as="geometry" />
        </mxCell>
        <mxCell id="nuQ9qfcuOtzx04qTKdnB-4" value="Motor Controller" style="rounded=0;whiteSpace=wrap;html=1;" parent="1" vertex="1">
          <mxGeometry x="1070" y="-190" width="120" height="20" as="geometry" />
        </mxCell>
        <mxCell id="0XD9k7tak5M0PMO-EuPi-2" value="" style="edgeStyle=orthogonalEdgeStyle;rounded=0;orthogonalLoop=1;jettySize=auto;html=1;" parent="1" source="dnGgp1YoJP_r4CT0bj4k-56" target="0XD9k7tak5M0PMO-EuPi-1" edge="1">
          <mxGeometry relative="1" as="geometry">
            <mxPoint x="240" y="-100" as="targetPoint" />
            <mxPoint x="3" y="-100" as="sourcePoint" />
          </mxGeometry>
        </mxCell>
        <mxCell id="89C8UJNl7Bzz-WB_jbeR-9" style="edgeStyle=orthogonalEdgeStyle;rounded=0;orthogonalLoop=1;jettySize=auto;html=1;entryX=0;entryY=0.75;entryDx=0;entryDy=0;entryPerimeter=0;endArrow=none;endFill=0;" edge="1" parent="1" source="0XD9k7tak5M0PMO-EuPi-1" target="89C8UJNl7Bzz-WB_jbeR-19">
          <mxGeometry relative="1" as="geometry">
            <mxPoint x="130" y="20" as="targetPoint" />
            <Array as="points">
              <mxPoint x="130" y="-80" />
              <mxPoint x="130" />
              <mxPoint x="-450" />
              <mxPoint x="-450" y="-85" />
            </Array>
          </mxGeometry>
        </mxCell>
        <mxCell id="0XD9k7tak5M0PMO-EuPi-1" value="" style="rounded=0;whiteSpace=wrap;html=1;" parent="1" vertex="1">
          <mxGeometry x="30" y="-130" width="80" height="60" as="geometry" />
        </mxCell>
        <mxCell id="0XD9k7tak5M0PMO-EuPi-3" value="" style="edgeStyle=entityRelationEdgeStyle;fontSize=12;html=1;endArrow=ERmandOne;startArrow=ERmandOne;rounded=0;" parent="1" edge="1">
          <mxGeometry width="100" height="100" relative="1" as="geometry">
            <mxPoint x="33.75" y="-87" as="sourcePoint" />
            <mxPoint x="106.25" y="-117" as="targetPoint" />
            <Array as="points">
              <mxPoint x="83.75" y="-147" />
              <mxPoint x="56.25" y="-107" />
              <mxPoint x="98.75" y="-122" />
              <mxPoint x="86.25" y="-194.5" />
              <mxPoint x="86.25" y="-104.5" />
              <mxPoint x="56.25" y="-121.5" />
            </Array>
          </mxGeometry>
        </mxCell>
        <mxCell id="89C8UJNl7Bzz-WB_jbeR-10" value="Saturated&lt;div&gt;(Bool)&lt;/div&gt;" style="text;html=1;align=center;verticalAlign=middle;whiteSpace=wrap;rounded=0;" vertex="1" parent="1">
          <mxGeometry x="40" y="-35" width="60" height="30" as="geometry" />
        </mxCell>
        <mxCell id="89C8UJNl7Bzz-WB_jbeR-13" value="" style="group" vertex="1" connectable="0" parent="1">
          <mxGeometry x="-260" y="-125" width="80" height="60" as="geometry" />
        </mxCell>
        <mxCell id="89C8UJNl7Bzz-WB_jbeR-20" value="" style="group" vertex="1" connectable="0" parent="89C8UJNl7Bzz-WB_jbeR-13">
          <mxGeometry width="80" height="60" as="geometry" />
        </mxCell>
        <mxCell id="jtOmIqLI8az2b44zHoy8-1" style="edgeStyle=orthogonalEdgeStyle;rounded=0;orthogonalLoop=1;jettySize=auto;html=1;" edge="1" parent="89C8UJNl7Bzz-WB_jbeR-20" source="dnGgp1YoJP_r4CT0bj4k-11">
          <mxGeometry relative="1" as="geometry">
            <mxPoint x="40" y="-35" as="targetPoint" />
          </mxGeometry>
        </mxCell>
        <mxCell id="dnGgp1YoJP_r4CT0bj4k-11" value="1/S" style="rounded=0;whiteSpace=wrap;html=1;" parent="89C8UJNl7Bzz-WB_jbeR-20" vertex="1">
          <mxGeometry width="80" height="60" as="geometry" />
        </mxCell>
        <mxCell id="89C8UJNl7Bzz-WB_jbeR-12" value="&lt;font style=&quot;font-size: 6px;&quot;&gt;Input&lt;/font&gt;&lt;div&gt;&lt;font style=&quot;font-size: 6px;&quot;&gt;RST&lt;/font&gt;&lt;/div&gt;&lt;div&gt;&lt;font style=&quot;font-size: 6px;&quot;&gt;X0&lt;/font&gt;&lt;/div&gt;" style="text;html=1;align=center;verticalAlign=middle;whiteSpace=wrap;rounded=0;" vertex="1" parent="89C8UJNl7Bzz-WB_jbeR-20">
          <mxGeometry y="15" width="20" height="30" as="geometry" />
        </mxCell>
        <mxCell id="89C8UJNl7Bzz-WB_jbeR-14" value="" style="group" vertex="1" connectable="0" parent="1">
          <mxGeometry x="-420" y="-210" width="60" height="60" as="geometry" />
        </mxCell>
        <mxCell id="89C8UJNl7Bzz-WB_jbeR-15" value="" style="group" vertex="1" connectable="0" parent="89C8UJNl7Bzz-WB_jbeR-14">
          <mxGeometry width="60" height="60" as="geometry" />
        </mxCell>
        <mxCell id="dnGgp1YoJP_r4CT0bj4k-8" value="" style="triangle;whiteSpace=wrap;html=1;align=left;" parent="89C8UJNl7Bzz-WB_jbeR-15" vertex="1">
          <mxGeometry width="60" height="60" as="geometry" />
        </mxCell>
        <mxCell id="dnGgp1YoJP_r4CT0bj4k-16" value="1/M" style="text;html=1;align=center;verticalAlign=middle;whiteSpace=wrap;rounded=0;" parent="89C8UJNl7Bzz-WB_jbeR-15" vertex="1">
          <mxGeometry x="10" y="15" width="30" height="30" as="geometry" />
        </mxCell>
        <mxCell id="89C8UJNl7Bzz-WB_jbeR-16" style="edgeStyle=orthogonalEdgeStyle;rounded=0;orthogonalLoop=1;jettySize=auto;html=1;exitX=0.5;exitY=1;exitDx=0;exitDy=0;" edge="1" parent="89C8UJNl7Bzz-WB_jbeR-15" source="dnGgp1YoJP_r4CT0bj4k-16" target="dnGgp1YoJP_r4CT0bj4k-16">
          <mxGeometry relative="1" as="geometry" />
        </mxCell>
        <mxCell id="89C8UJNl7Bzz-WB_jbeR-21" style="edgeStyle=orthogonalEdgeStyle;rounded=0;orthogonalLoop=1;jettySize=auto;html=1;entryX=0;entryY=1;entryDx=0;entryDy=0;" edge="1" parent="1" source="89C8UJNl7Bzz-WB_jbeR-17" target="89C8UJNl7Bzz-WB_jbeR-12">
          <mxGeometry relative="1" as="geometry">
            <Array as="points">
              <mxPoint x="-320" y="-30" />
              <mxPoint x="-320" y="-80" />
            </Array>
          </mxGeometry>
        </mxCell>
        <mxCell id="89C8UJNl7Bzz-WB_jbeR-17" value="0" style="rounded=0;whiteSpace=wrap;html=1;" vertex="1" parent="1">
          <mxGeometry x="-405" y="-45" width="30" height="30" as="geometry" />
        </mxCell>
        <mxCell id="89C8UJNl7Bzz-WB_jbeR-22" style="edgeStyle=orthogonalEdgeStyle;rounded=0;orthogonalLoop=1;jettySize=auto;html=1;entryX=0;entryY=0.5;entryDx=0;entryDy=0;" edge="1" parent="1" source="89C8UJNl7Bzz-WB_jbeR-19" target="89C8UJNl7Bzz-WB_jbeR-12">
          <mxGeometry relative="1" as="geometry" />
        </mxCell>
        <mxCell id="89C8UJNl7Bzz-WB_jbeR-19" value="" style="verticalLabelPosition=bottom;shadow=0;dashed=0;align=center;html=1;verticalAlign=top;shape=mxgraph.electrical.logic_gates.logic_gate;operation=or;" vertex="1" parent="1">
          <mxGeometry x="-420" y="-115" width="75" height="40" as="geometry" />
        </mxCell>
        <mxCell id="89C8UJNl7Bzz-WB_jbeR-23" value="Model&amp;nbsp;&lt;div&gt;Hard Stops&lt;/div&gt;" style="text;html=1;align=center;verticalAlign=middle;whiteSpace=wrap;rounded=0;" vertex="1" parent="1">
          <mxGeometry x="25" y="-170" width="90" height="30" as="geometry" />
        </mxCell>
        <mxCell id="89C8UJNl7Bzz-WB_jbeR-24" value="&lt;div&gt;Friction Model:&lt;/div&gt;https://uk.mathworks.com/help/simulink/slref/friction-model-with-hard-stops.html" style="text;html=1;align=left;verticalAlign=middle;whiteSpace=wrap;rounded=0;" vertex="1" parent="1">
          <mxGeometry x="-1109.12" y="-380" width="500" height="30" as="geometry" />
        </mxCell>
        <mxCell id="89C8UJNl7Bzz-WB_jbeR-34" style="edgeStyle=orthogonalEdgeStyle;rounded=0;orthogonalLoop=1;jettySize=auto;html=1;entryX=0;entryY=0.5;entryDx=0;entryDy=0;" edge="1" parent="1" source="89C8UJNl7Bzz-WB_jbeR-25" target="89C8UJNl7Bzz-WB_jbeR-32">
          <mxGeometry relative="1" as="geometry" />
        </mxCell>
        <mxCell id="89C8UJNl7Bzz-WB_jbeR-25" value="min" style="rounded=0;whiteSpace=wrap;html=1;" vertex="1" parent="1">
          <mxGeometry x="-899.12" y="-166.75" width="30" height="130" as="geometry" />
        </mxCell>
        <mxCell id="89C8UJNl7Bzz-WB_jbeR-36" style="edgeStyle=orthogonalEdgeStyle;rounded=0;orthogonalLoop=1;jettySize=auto;html=1;entryX=0;entryY=0.25;entryDx=0;entryDy=0;" edge="1" parent="1" source="89C8UJNl7Bzz-WB_jbeR-26" target="89C8UJNl7Bzz-WB_jbeR-25">
          <mxGeometry relative="1" as="geometry" />
        </mxCell>
        <mxCell id="89C8UJNl7Bzz-WB_jbeR-26" value="Static Friction&lt;div&gt;F = u.N&lt;/div&gt;" style="rounded=0;whiteSpace=wrap;html=1;" vertex="1" parent="1">
          <mxGeometry x="-1029.12" y="-164.75" width="80" height="60" as="geometry" />
        </mxCell>
        <mxCell id="89C8UJNl7Bzz-WB_jbeR-37" style="edgeStyle=orthogonalEdgeStyle;rounded=0;orthogonalLoop=1;jettySize=auto;html=1;entryX=0;entryY=0.75;entryDx=0;entryDy=0;" edge="1" parent="1" source="89C8UJNl7Bzz-WB_jbeR-27" target="89C8UJNl7Bzz-WB_jbeR-25">
          <mxGeometry relative="1" as="geometry" />
        </mxCell>
        <mxCell id="89C8UJNl7Bzz-WB_jbeR-27" value="|U|" style="rounded=0;whiteSpace=wrap;html=1;" vertex="1" parent="1">
          <mxGeometry x="-1029.12" y="-99.75" width="80" height="60" as="geometry" />
        </mxCell>
        <mxCell id="89C8UJNl7Bzz-WB_jbeR-35" style="edgeStyle=orthogonalEdgeStyle;rounded=0;orthogonalLoop=1;jettySize=auto;html=1;entryX=0.5;entryY=1;entryDx=0;entryDy=0;" edge="1" parent="1" source="89C8UJNl7Bzz-WB_jbeR-29" target="89C8UJNl7Bzz-WB_jbeR-32">
          <mxGeometry relative="1" as="geometry" />
        </mxCell>
        <mxCell id="89C8UJNl7Bzz-WB_jbeR-29" value="Sign" style="shape=hexagon;perimeter=hexagonPerimeter2;whiteSpace=wrap;html=1;fixedSize=1;" vertex="1" parent="1">
          <mxGeometry x="-1029.12" y="-19.75" width="80" height="50" as="geometry" />
        </mxCell>
        <mxCell id="89C8UJNl7Bzz-WB_jbeR-32" value="" style="shape=sumEllipse;perimeter=ellipsePerimeter;whiteSpace=wrap;html=1;backgroundOutline=1;" vertex="1" parent="1">
          <mxGeometry x="-819.12" y="-111.75" width="20" height="20" as="geometry" />
        </mxCell>
        <mxCell id="89C8UJNl7Bzz-WB_jbeR-39" style="edgeStyle=orthogonalEdgeStyle;rounded=0;orthogonalLoop=1;jettySize=auto;html=1;exitX=1;exitY=0;exitDx=0;exitDy=0;" edge="1" parent="1" source="jtOmIqLI8az2b44zHoy8-16" target="89C8UJNl7Bzz-WB_jbeR-27">
          <mxGeometry relative="1" as="geometry">
            <Array as="points">
              <mxPoint x="-1069.12" y="5.25" />
              <mxPoint x="-1069.12" y="-69.75" />
            </Array>
          </mxGeometry>
        </mxCell>
        <mxCell id="89C8UJNl7Bzz-WB_jbeR-40" style="edgeStyle=orthogonalEdgeStyle;rounded=0;orthogonalLoop=1;jettySize=auto;html=1;entryX=0;entryY=0.5;entryDx=0;entryDy=0;exitX=1;exitY=0;exitDx=0;exitDy=0;" edge="1" parent="1" source="jtOmIqLI8az2b44zHoy8-16" target="89C8UJNl7Bzz-WB_jbeR-29">
          <mxGeometry relative="1" as="geometry">
            <Array as="points">
              <mxPoint x="-1059.12" y="5.25" />
              <mxPoint x="-1059.12" y="5.25" />
            </Array>
          </mxGeometry>
        </mxCell>
        <mxCell id="89C8UJNl7Bzz-WB_jbeR-45" style="edgeStyle=orthogonalEdgeStyle;rounded=0;orthogonalLoop=1;jettySize=auto;html=1;entryX=0.5;entryY=0;entryDx=0;entryDy=0;" edge="1" parent="1" source="89C8UJNl7Bzz-WB_jbeR-41" target="89C8UJNl7Bzz-WB_jbeR-43">
          <mxGeometry relative="1" as="geometry" />
        </mxCell>
        <mxCell id="89C8UJNl7Bzz-WB_jbeR-41" value="Sign" style="shape=hexagon;perimeter=hexagonPerimeter2;whiteSpace=wrap;html=1;fixedSize=1;" vertex="1" parent="1">
          <mxGeometry x="-1029.12" y="-329.75" width="80" height="50" as="geometry" />
        </mxCell>
        <mxCell id="89C8UJNl7Bzz-WB_jbeR-44" style="edgeStyle=orthogonalEdgeStyle;rounded=0;orthogonalLoop=1;jettySize=auto;html=1;entryX=0;entryY=0.5;entryDx=0;entryDy=0;" edge="1" parent="1" source="89C8UJNl7Bzz-WB_jbeR-42" target="89C8UJNl7Bzz-WB_jbeR-43">
          <mxGeometry relative="1" as="geometry" />
        </mxCell>
        <mxCell id="89C8UJNl7Bzz-WB_jbeR-42" value="Dynamic Friction&amp;nbsp;&lt;div&gt;&lt;div&gt;F = u.N&lt;/div&gt;&lt;/div&gt;" style="rounded=0;whiteSpace=wrap;html=1;" vertex="1" parent="1">
          <mxGeometry x="-1029.12" y="-259.75" width="80" height="60" as="geometry" />
        </mxCell>
        <mxCell id="89C8UJNl7Bzz-WB_jbeR-43" value="" style="shape=sumEllipse;perimeter=ellipsePerimeter;whiteSpace=wrap;html=1;backgroundOutline=1;" vertex="1" parent="1">
          <mxGeometry x="-919.12" y="-239.75" width="20" height="20" as="geometry" />
        </mxCell>
        <mxCell id="89C8UJNl7Bzz-WB_jbeR-47" style="edgeStyle=orthogonalEdgeStyle;rounded=0;orthogonalLoop=1;jettySize=auto;html=1;entryX=0;entryY=0.5;entryDx=0;entryDy=0;" edge="1" parent="1" source="89C8UJNl7Bzz-WB_jbeR-46" target="89C8UJNl7Bzz-WB_jbeR-41">
          <mxGeometry relative="1" as="geometry" />
        </mxCell>
        <mxCell id="89C8UJNl7Bzz-WB_jbeR-46" value="Ref&amp;nbsp;&lt;div&gt;Vel&lt;/div&gt;" style="text;html=1;align=center;verticalAlign=middle;whiteSpace=wrap;rounded=0;" vertex="1" parent="1">
          <mxGeometry x="-1129.12" y="-319.75" width="60" height="30" as="geometry" />
        </mxCell>
        <mxCell id="89C8UJNl7Bzz-WB_jbeR-65" style="edgeStyle=orthogonalEdgeStyle;rounded=0;orthogonalLoop=1;jettySize=auto;html=1;endArrow=none;endFill=0;startArrow=oval;startFill=1;" edge="1" parent="1" target="89C8UJNl7Bzz-WB_jbeR-61">
          <mxGeometry relative="1" as="geometry">
            <mxPoint x="-709.12" y="100" as="sourcePoint" />
          </mxGeometry>
        </mxCell>
        <mxCell id="89C8UJNl7Bzz-WB_jbeR-49" value="Hit&amp;nbsp;&lt;div&gt;Crossing&lt;/div&gt;" style="rounded=0;whiteSpace=wrap;html=1;" vertex="1" parent="1">
          <mxGeometry x="-1029.12" y="70" width="80" height="60" as="geometry" />
        </mxCell>
        <mxCell id="89C8UJNl7Bzz-WB_jbeR-50" value="State" style="text;html=1;align=center;verticalAlign=middle;whiteSpace=wrap;rounded=0;" vertex="1" parent="1">
          <mxGeometry x="-1100.12" y="81" width="30" height="30" as="geometry" />
        </mxCell>
        <mxCell id="jtOmIqLI8az2b44zHoy8-4" style="edgeStyle=orthogonalEdgeStyle;rounded=0;orthogonalLoop=1;jettySize=auto;html=1;exitX=1;exitY=0.5;exitDx=0;exitDy=-5;exitPerimeter=0;entryX=0;entryY=0.5;entryDx=0;entryDy=0;" edge="1" parent="1" source="89C8UJNl7Bzz-WB_jbeR-61" target="jtOmIqLI8az2b44zHoy8-36">
          <mxGeometry relative="1" as="geometry">
            <mxPoint x="-649.12" y="-179.54999999999995" as="targetPoint" />
            <Array as="points">
              <mxPoint x="-609.12" y="-180" />
            </Array>
          </mxGeometry>
        </mxCell>
        <mxCell id="89C8UJNl7Bzz-WB_jbeR-61" value="Mux" style="shadow=0;dashed=0;align=center;html=1;strokeWidth=1;shape=mxgraph.electrical.abstract.mux2;whiteSpace=wrap;" vertex="1" parent="1">
          <mxGeometry x="-749.12" y="-234.75" width="80" height="120" as="geometry" />
        </mxCell>
        <mxCell id="89C8UJNl7Bzz-WB_jbeR-63" style="edgeStyle=orthogonalEdgeStyle;rounded=0;orthogonalLoop=1;jettySize=auto;html=1;entryX=0;entryY=0.21666666666666667;entryDx=0;entryDy=3;entryPerimeter=0;endArrow=none;endFill=0;" edge="1" parent="1" source="89C8UJNl7Bzz-WB_jbeR-43" target="89C8UJNl7Bzz-WB_jbeR-61">
          <mxGeometry relative="1" as="geometry">
            <Array as="points">
              <mxPoint x="-779.12" y="-229.75" />
              <mxPoint x="-779.12" y="-205.75" />
            </Array>
          </mxGeometry>
        </mxCell>
        <mxCell id="89C8UJNl7Bzz-WB_jbeR-64" style="edgeStyle=orthogonalEdgeStyle;rounded=0;orthogonalLoop=1;jettySize=auto;html=1;entryX=0;entryY=0.65;entryDx=0;entryDy=3;entryPerimeter=0;endArrow=none;endFill=0;" edge="1" parent="1" source="89C8UJNl7Bzz-WB_jbeR-32" target="89C8UJNl7Bzz-WB_jbeR-61">
          <mxGeometry relative="1" as="geometry">
            <Array as="points">
              <mxPoint x="-779.12" y="-101.75" />
              <mxPoint x="-779.12" y="-153.75" />
            </Array>
          </mxGeometry>
        </mxCell>
        <mxCell id="jtOmIqLI8az2b44zHoy8-2" value="State" style="text;html=1;align=center;verticalAlign=middle;whiteSpace=wrap;rounded=0;" vertex="1" parent="1">
          <mxGeometry x="-250" y="-190" width="60" height="30" as="geometry" />
        </mxCell>
        <mxCell id="jtOmIqLI8az2b44zHoy8-6" value="Stuck" style="text;html=1;align=center;verticalAlign=middle;whiteSpace=wrap;rounded=0;" vertex="1" parent="1">
          <mxGeometry x="-490" y="-126" width="60" height="30" as="geometry" />
        </mxCell>
        <mxCell id="jtOmIqLI8az2b44zHoy8-7" value="Total Force" style="text;html=1;align=center;verticalAlign=middle;whiteSpace=wrap;rounded=0;" vertex="1" parent="1">
          <mxGeometry x="-550" y="-205.13" width="90" height="30" as="geometry" />
        </mxCell>
        <mxCell id="jtOmIqLI8az2b44zHoy8-11" value="" style="ellipse;whiteSpace=wrap;html=1;aspect=fixed;" vertex="1" parent="1">
          <mxGeometry x="550" y="-110" width="20" height="20" as="geometry" />
        </mxCell>
        <mxCell id="jtOmIqLI8az2b44zHoy8-12" value="+" style="text;html=1;align=center;verticalAlign=middle;whiteSpace=wrap;rounded=0;" vertex="1" parent="1">
          <mxGeometry x="546" y="-105" width="20" height="10" as="geometry" />
        </mxCell>
        <mxCell id="jtOmIqLI8az2b44zHoy8-13" value="+" style="text;html=1;align=center;verticalAlign=middle;whiteSpace=wrap;rounded=0;" vertex="1" parent="1">
          <mxGeometry x="550" y="-100" width="20" height="10" as="geometry" />
        </mxCell>
        <mxCell id="jtOmIqLI8az2b44zHoy8-40" style="edgeStyle=orthogonalEdgeStyle;rounded=0;orthogonalLoop=1;jettySize=auto;html=1;entryX=0.501;entryY=1.038;entryDx=0;entryDy=0;startArrow=oval;startFill=1;entryPerimeter=0;" edge="1" parent="1" target="jtOmIqLI8az2b44zHoy8-36">
          <mxGeometry relative="1" as="geometry">
            <mxPoint x="-1069.12" y="5.25" as="sourcePoint" />
            <Array as="points">
              <mxPoint x="-1069.12" y="50" />
              <mxPoint x="-575.12" y="50" />
            </Array>
          </mxGeometry>
        </mxCell>
        <mxCell id="jtOmIqLI8az2b44zHoy8-14" value="" style="ellipse;whiteSpace=wrap;html=1;aspect=fixed;" vertex="1" parent="1">
          <mxGeometry x="-1175.12" y="-5" width="20" height="20" as="geometry" />
        </mxCell>
        <mxCell id="jtOmIqLI8az2b44zHoy8-15" value="+" style="text;html=1;align=center;verticalAlign=middle;whiteSpace=wrap;rounded=0;" vertex="1" parent="1">
          <mxGeometry x="-1179.12" width="20" height="10" as="geometry" />
        </mxCell>
        <mxCell id="jtOmIqLI8az2b44zHoy8-16" value="-" style="text;html=1;align=center;verticalAlign=middle;whiteSpace=wrap;rounded=0;" vertex="1" parent="1">
          <mxGeometry x="-1175.12" y="5" width="20" height="10" as="geometry" />
        </mxCell>
        <mxCell id="QHiHHKqtbSbCYApLtpWq-2" style="edgeStyle=orthogonalEdgeStyle;rounded=0;orthogonalLoop=1;jettySize=auto;html=1;entryX=0;entryY=0.5;entryDx=0;entryDy=0;" edge="1" parent="1" source="jtOmIqLI8az2b44zHoy8-36" target="dnGgp1YoJP_r4CT0bj4k-8">
          <mxGeometry relative="1" as="geometry" />
        </mxCell>
        <mxCell id="jtOmIqLI8az2b44zHoy8-36" value="" style="ellipse;whiteSpace=wrap;html=1;aspect=fixed;" vertex="1" parent="1">
          <mxGeometry x="-590.25" y="-195.13" width="30.25" height="30.25" as="geometry" />
        </mxCell>
        <mxCell id="jtOmIqLI8az2b44zHoy8-37" value="-" style="text;html=1;align=center;verticalAlign=middle;whiteSpace=wrap;rounded=0;" vertex="1" parent="1">
          <mxGeometry x="-590.12" y="-185.13" width="10" height="10" as="geometry" />
        </mxCell>
        <mxCell id="jtOmIqLI8az2b44zHoy8-38" value="+" style="text;html=1;align=center;verticalAlign=middle;whiteSpace=wrap;rounded=0;" vertex="1" parent="1">
          <mxGeometry x="-578.12" y="-172" width="6" height="5.25" as="geometry" />
        </mxCell>
        <mxCell id="QHiHHKqtbSbCYApLtpWq-4" style="edgeStyle=orthogonalEdgeStyle;rounded=0;orthogonalLoop=1;jettySize=auto;html=1;entryX=0;entryY=0;entryDx=0;entryDy=0;" edge="1" parent="1" source="QHiHHKqtbSbCYApLtpWq-1" target="jtOmIqLI8az2b44zHoy8-16">
          <mxGeometry relative="1" as="geometry">
            <Array as="points">
              <mxPoint x="-1222.12" y="5" />
              <mxPoint x="-1155.12" y="5" />
            </Array>
          </mxGeometry>
        </mxCell>
        <mxCell id="QHiHHKqtbSbCYApLtpWq-1" value="Input Force&lt;div&gt;(Pilot 1&lt;span style=&quot;background-color: initial;&quot;&gt;)&lt;/span&gt;&lt;/div&gt;" style="rounded=0;whiteSpace=wrap;html=1;" vertex="1" parent="1">
          <mxGeometry x="-1329.12" y="-24.75" width="120" height="60" as="geometry" />
        </mxCell>
        <mxCell id="QHiHHKqtbSbCYApLtpWq-8" style="edgeStyle=orthogonalEdgeStyle;rounded=0;orthogonalLoop=1;jettySize=auto;html=1;entryX=0;entryY=0.429;entryDx=0;entryDy=0;entryPerimeter=0;" edge="1" parent="1" source="89C8UJNl7Bzz-WB_jbeR-50" target="89C8UJNl7Bzz-WB_jbeR-49">
          <mxGeometry relative="1" as="geometry">
            <Array as="points">
              <mxPoint x="-1049.12" y="96" />
            </Array>
          </mxGeometry>
        </mxCell>
        <mxCell id="QHiHHKqtbSbCYApLtpWq-11" value="-" style="text;html=1;align=center;verticalAlign=middle;whiteSpace=wrap;rounded=0;" vertex="1" parent="1">
          <mxGeometry x="-580.12" y="-195.13" width="10" height="10" as="geometry" />
        </mxCell>
        <mxCell id="QHiHHKqtbSbCYApLtpWq-12" style="edgeStyle=orthogonalEdgeStyle;rounded=0;orthogonalLoop=1;jettySize=auto;html=1;entryX=0;entryY=0.25;entryDx=0;entryDy=0;entryPerimeter=0;endArrow=none;endFill=0;" edge="1" parent="1" source="89C8UJNl7Bzz-WB_jbeR-49" target="89C8UJNl7Bzz-WB_jbeR-19">
          <mxGeometry relative="1" as="geometry">
            <Array as="points">
              <mxPoint x="-520" y="100" />
              <mxPoint x="-520" y="-105" />
            </Array>
          </mxGeometry>
        </mxCell>
      </root>
    </mxGraphModel>
  </diagram>
  <diagram name="Page-2" id="2TxLkB9pAAeGMq5v--hG">
    <mxGraphModel dx="1050" dy="530" grid="1" gridSize="10" guides="1" tooltips="1" connect="1" arrows="1" fold="1" page="1" pageScale="1" pageWidth="827" pageHeight="1169" math="0" shadow="0">
      <root>
        <mxCell id="0" />
        <mxCell id="1" parent="0" />
        <mxCell id="ED9p_ZeVLnc5XMbssxmR-9" value="" style="rounded=0;whiteSpace=wrap;html=1;fillColor=#f5f5f5;gradientColor=#b3b3b3;strokeColor=#666666;" parent="1" vertex="1">
          <mxGeometry x="760" y="120" width="760" height="420" as="geometry" />
        </mxCell>
        <mxCell id="ED9p_ZeVLnc5XMbssxmR-2" value="" style="rounded=0;whiteSpace=wrap;html=1;fillColor=#f5f5f5;gradientColor=#b3b3b3;strokeColor=#666666;" parent="1" vertex="1">
          <mxGeometry x="750" y="110" width="760" height="420" as="geometry" />
        </mxCell>
        <mxCell id="1oobGtyqgekjk0eKlCHe-19" style="edgeStyle=orthogonalEdgeStyle;rounded=0;orthogonalLoop=1;jettySize=auto;html=1;entryX=0;entryY=0.5;entryDx=0;entryDy=0;" parent="1" source="1oobGtyqgekjk0eKlCHe-1" target="1oobGtyqgekjk0eKlCHe-2" edge="1">
          <mxGeometry relative="1" as="geometry" />
        </mxCell>
        <mxCell id="1oobGtyqgekjk0eKlCHe-1" value="Input Force&lt;div&gt;(Pilot 1&lt;span style=&quot;background-color: initial;&quot;&gt;)&lt;/span&gt;&lt;/div&gt;" style="rounded=0;whiteSpace=wrap;html=1;" parent="1" vertex="1">
          <mxGeometry x="40" y="170" width="120" height="60" as="geometry" />
        </mxCell>
        <mxCell id="1oobGtyqgekjk0eKlCHe-12" style="edgeStyle=orthogonalEdgeStyle;rounded=0;orthogonalLoop=1;jettySize=auto;html=1;entryX=0;entryY=0.5;entryDx=0;entryDy=0;" parent="1" source="1oobGtyqgekjk0eKlCHe-2" target="1oobGtyqgekjk0eKlCHe-3" edge="1">
          <mxGeometry relative="1" as="geometry" />
        </mxCell>
        <mxCell id="1oobGtyqgekjk0eKlCHe-2" value="" style="ellipse;whiteSpace=wrap;html=1;aspect=fixed;" parent="1" vertex="1">
          <mxGeometry x="220" y="180" width="40" height="40" as="geometry" />
        </mxCell>
        <mxCell id="1oobGtyqgekjk0eKlCHe-13" style="edgeStyle=orthogonalEdgeStyle;rounded=0;orthogonalLoop=1;jettySize=auto;html=1;entryX=0;entryY=0.5;entryDx=0;entryDy=0;" parent="1" source="1oobGtyqgekjk0eKlCHe-3" target="1oobGtyqgekjk0eKlCHe-4" edge="1">
          <mxGeometry relative="1" as="geometry" />
        </mxCell>
        <mxCell id="1oobGtyqgekjk0eKlCHe-3" value="" style="triangle;whiteSpace=wrap;html=1;align=left;" parent="1" vertex="1">
          <mxGeometry x="300" y="170" width="60" height="60" as="geometry" />
        </mxCell>
        <mxCell id="1oobGtyqgekjk0eKlCHe-14" style="edgeStyle=orthogonalEdgeStyle;rounded=0;orthogonalLoop=1;jettySize=auto;html=1;entryX=0;entryY=0.5;entryDx=0;entryDy=0;" parent="1" source="1oobGtyqgekjk0eKlCHe-4" target="1oobGtyqgekjk0eKlCHe-5" edge="1">
          <mxGeometry relative="1" as="geometry" />
        </mxCell>
        <mxCell id="1oobGtyqgekjk0eKlCHe-16" style="edgeStyle=orthogonalEdgeStyle;rounded=0;orthogonalLoop=1;jettySize=auto;html=1;entryX=1;entryY=0.5;entryDx=0;entryDy=0;" parent="1" source="1oobGtyqgekjk0eKlCHe-4" target="1oobGtyqgekjk0eKlCHe-9" edge="1">
          <mxGeometry relative="1" as="geometry">
            <Array as="points">
              <mxPoint x="560" y="200" />
              <mxPoint x="560" y="300" />
            </Array>
          </mxGeometry>
        </mxCell>
        <mxCell id="1oobGtyqgekjk0eKlCHe-4" value="1/S" style="rounded=0;whiteSpace=wrap;html=1;" parent="1" vertex="1">
          <mxGeometry x="440" y="170" width="80" height="60" as="geometry" />
        </mxCell>
        <mxCell id="1oobGtyqgekjk0eKlCHe-26" style="edgeStyle=orthogonalEdgeStyle;rounded=0;orthogonalLoop=1;jettySize=auto;html=1;" parent="1" source="1oobGtyqgekjk0eKlCHe-35" target="1oobGtyqgekjk0eKlCHe-24" edge="1">
          <mxGeometry relative="1" as="geometry" />
        </mxCell>
        <mxCell id="1oobGtyqgekjk0eKlCHe-5" value="1/S" style="rounded=0;whiteSpace=wrap;html=1;" parent="1" vertex="1">
          <mxGeometry x="600" y="170" width="80" height="60" as="geometry" />
        </mxCell>
        <mxCell id="1oobGtyqgekjk0eKlCHe-17" style="edgeStyle=orthogonalEdgeStyle;rounded=0;orthogonalLoop=1;jettySize=auto;html=1;entryX=0.5;entryY=1;entryDx=0;entryDy=0;" parent="1" source="1oobGtyqgekjk0eKlCHe-6" target="1oobGtyqgekjk0eKlCHe-2" edge="1">
          <mxGeometry relative="1" as="geometry" />
        </mxCell>
        <mxCell id="1oobGtyqgekjk0eKlCHe-6" value="" style="triangle;whiteSpace=wrap;html=1;align=left;rotation=-180;" parent="1" vertex="1">
          <mxGeometry x="300" y="270" width="60" height="60" as="geometry" />
        </mxCell>
        <mxCell id="1oobGtyqgekjk0eKlCHe-8" value="1/M" style="text;html=1;align=center;verticalAlign=middle;whiteSpace=wrap;rounded=0;" parent="1" vertex="1">
          <mxGeometry x="310" y="185" width="30" height="30" as="geometry" />
        </mxCell>
        <mxCell id="1oobGtyqgekjk0eKlCHe-9" value="C" style="text;html=1;align=center;verticalAlign=middle;whiteSpace=wrap;rounded=0;" parent="1" vertex="1">
          <mxGeometry x="320" y="285" width="40" height="30" as="geometry" />
        </mxCell>
        <mxCell id="1oobGtyqgekjk0eKlCHe-18" style="rounded=0;orthogonalLoop=1;jettySize=auto;html=1;entryX=0;entryY=1;entryDx=0;entryDy=0;" parent="1" source="1oobGtyqgekjk0eKlCHe-10" target="1oobGtyqgekjk0eKlCHe-2" edge="1">
          <mxGeometry relative="1" as="geometry">
            <Array as="points">
              <mxPoint x="200" y="480" />
              <mxPoint x="200" y="240" />
            </Array>
          </mxGeometry>
        </mxCell>
        <mxCell id="1oobGtyqgekjk0eKlCHe-10" value="F(x)" style="rounded=0;whiteSpace=wrap;html=1;" parent="1" vertex="1">
          <mxGeometry x="290" y="450" width="80" height="60" as="geometry" />
        </mxCell>
        <mxCell id="1oobGtyqgekjk0eKlCHe-22" value="-" style="text;html=1;align=center;verticalAlign=middle;whiteSpace=wrap;rounded=0;" parent="1" vertex="1">
          <mxGeometry x="220" y="203" width="20" height="10" as="geometry" />
        </mxCell>
        <mxCell id="1oobGtyqgekjk0eKlCHe-23" value="-" style="text;html=1;align=center;verticalAlign=middle;whiteSpace=wrap;rounded=0;" parent="1" vertex="1">
          <mxGeometry x="230" y="210" width="20" height="10" as="geometry" />
        </mxCell>
        <mxCell id="1oobGtyqgekjk0eKlCHe-20" value="+" style="text;html=1;align=center;verticalAlign=middle;whiteSpace=wrap;rounded=0;" parent="1" vertex="1">
          <mxGeometry x="216" y="195" width="20" height="10" as="geometry" />
        </mxCell>
        <mxCell id="1oobGtyqgekjk0eKlCHe-38" style="edgeStyle=orthogonalEdgeStyle;rounded=0;orthogonalLoop=1;jettySize=auto;html=1;entryX=0;entryY=0.5;entryDx=0;entryDy=0;" parent="1" source="1oobGtyqgekjk0eKlCHe-24" target="1oobGtyqgekjk0eKlCHe-33" edge="1">
          <mxGeometry relative="1" as="geometry" />
        </mxCell>
        <mxCell id="1oobGtyqgekjk0eKlCHe-24" value="Position Controller" style="rounded=0;whiteSpace=wrap;html=1;" parent="1" vertex="1">
          <mxGeometry x="827" y="170" width="80" height="60" as="geometry" />
        </mxCell>
        <mxCell id="1oobGtyqgekjk0eKlCHe-37" style="edgeStyle=orthogonalEdgeStyle;rounded=0;orthogonalLoop=1;jettySize=auto;html=1;entryX=0.5;entryY=1;entryDx=0;entryDy=0;" parent="1" source="1oobGtyqgekjk0eKlCHe-25" target="1oobGtyqgekjk0eKlCHe-35" edge="1">
          <mxGeometry relative="1" as="geometry" />
        </mxCell>
        <mxCell id="ED9p_ZeVLnc5XMbssxmR-1" style="edgeStyle=orthogonalEdgeStyle;rounded=0;orthogonalLoop=1;jettySize=auto;html=1;entryX=1;entryY=0.5;entryDx=0;entryDy=0;" parent="1" source="1oobGtyqgekjk0eKlCHe-25" target="1oobGtyqgekjk0eKlCHe-10" edge="1">
          <mxGeometry relative="1" as="geometry" />
        </mxCell>
        <mxCell id="1oobGtyqgekjk0eKlCHe-25" value="Pos" style="rounded=0;whiteSpace=wrap;html=1;" parent="1" vertex="1">
          <mxGeometry x="827" y="450" width="80" height="60" as="geometry" />
        </mxCell>
        <mxCell id="1oobGtyqgekjk0eKlCHe-40" style="edgeStyle=orthogonalEdgeStyle;rounded=0;orthogonalLoop=1;jettySize=auto;html=1;entryX=0;entryY=0.5;entryDx=0;entryDy=0;" parent="1" source="1oobGtyqgekjk0eKlCHe-27" target="1oobGtyqgekjk0eKlCHe-34" edge="1">
          <mxGeometry relative="1" as="geometry" />
        </mxCell>
        <mxCell id="1oobGtyqgekjk0eKlCHe-27" value="Velocity&lt;div&gt;Controller&lt;/div&gt;" style="rounded=0;whiteSpace=wrap;html=1;" parent="1" vertex="1">
          <mxGeometry x="987" y="170" width="80" height="60" as="geometry" />
        </mxCell>
        <mxCell id="1oobGtyqgekjk0eKlCHe-31" style="edgeStyle=orthogonalEdgeStyle;rounded=0;orthogonalLoop=1;jettySize=auto;html=1;" parent="1" source="1oobGtyqgekjk0eKlCHe-28" edge="1">
          <mxGeometry relative="1" as="geometry">
            <mxPoint x="1307" y="200" as="targetPoint" />
          </mxGeometry>
        </mxCell>
        <mxCell id="1oobGtyqgekjk0eKlCHe-28" value="Current&lt;div&gt;Controller&lt;/div&gt;" style="rounded=0;whiteSpace=wrap;html=1;" parent="1" vertex="1">
          <mxGeometry x="1147" y="170" width="80" height="60" as="geometry" />
        </mxCell>
        <mxCell id="1oobGtyqgekjk0eKlCHe-42" style="edgeStyle=orthogonalEdgeStyle;rounded=0;orthogonalLoop=1;jettySize=auto;html=1;entryX=1;entryY=0.5;entryDx=0;entryDy=0;exitX=1;exitY=0.25;exitDx=0;exitDy=0;" parent="1" source="1oobGtyqgekjk0eKlCHe-30" target="1oobGtyqgekjk0eKlCHe-25" edge="1">
          <mxGeometry relative="1" as="geometry">
            <Array as="points">
              <mxPoint x="1480" y="180" />
              <mxPoint x="1480" y="480" />
            </Array>
          </mxGeometry>
        </mxCell>
        <mxCell id="1oobGtyqgekjk0eKlCHe-46" style="edgeStyle=orthogonalEdgeStyle;rounded=0;orthogonalLoop=1;jettySize=auto;html=1;entryX=1;entryY=0.5;entryDx=0;entryDy=0;exitX=1;exitY=0.75;exitDx=0;exitDy=0;" parent="1" source="1oobGtyqgekjk0eKlCHe-30" target="1oobGtyqgekjk0eKlCHe-44" edge="1">
          <mxGeometry relative="1" as="geometry">
            <Array as="points">
              <mxPoint x="1440" y="220" />
              <mxPoint x="1440" y="300" />
            </Array>
          </mxGeometry>
        </mxCell>
        <mxCell id="1oobGtyqgekjk0eKlCHe-47" style="edgeStyle=orthogonalEdgeStyle;rounded=0;orthogonalLoop=1;jettySize=auto;html=1;entryX=1;entryY=0.5;entryDx=0;entryDy=0;" parent="1" source="1oobGtyqgekjk0eKlCHe-30" target="1oobGtyqgekjk0eKlCHe-43" edge="1">
          <mxGeometry relative="1" as="geometry">
            <Array as="points">
              <mxPoint x="1460" y="200" />
              <mxPoint x="1460" y="400" />
            </Array>
          </mxGeometry>
        </mxCell>
        <mxCell id="1oobGtyqgekjk0eKlCHe-30" value="Plant" style="rounded=0;whiteSpace=wrap;html=1;" parent="1" vertex="1">
          <mxGeometry x="1307.5" y="160" width="120" height="80" as="geometry" />
        </mxCell>
        <mxCell id="1oobGtyqgekjk0eKlCHe-39" style="edgeStyle=orthogonalEdgeStyle;rounded=0;orthogonalLoop=1;jettySize=auto;html=1;entryX=0;entryY=0.5;entryDx=0;entryDy=0;" parent="1" source="1oobGtyqgekjk0eKlCHe-33" target="1oobGtyqgekjk0eKlCHe-27" edge="1">
          <mxGeometry relative="1" as="geometry" />
        </mxCell>
        <mxCell id="1oobGtyqgekjk0eKlCHe-33" value="" style="ellipse;whiteSpace=wrap;html=1;aspect=fixed;" parent="1" vertex="1">
          <mxGeometry x="940" y="190" width="20" height="20" as="geometry" />
        </mxCell>
        <mxCell id="1oobGtyqgekjk0eKlCHe-41" style="edgeStyle=orthogonalEdgeStyle;rounded=0;orthogonalLoop=1;jettySize=auto;html=1;entryX=0;entryY=0.5;entryDx=0;entryDy=0;" parent="1" source="1oobGtyqgekjk0eKlCHe-34" target="1oobGtyqgekjk0eKlCHe-28" edge="1">
          <mxGeometry relative="1" as="geometry" />
        </mxCell>
        <mxCell id="1oobGtyqgekjk0eKlCHe-34" value="" style="ellipse;whiteSpace=wrap;html=1;aspect=fixed;" parent="1" vertex="1">
          <mxGeometry x="1100" y="190" width="20" height="20" as="geometry" />
        </mxCell>
        <mxCell id="1oobGtyqgekjk0eKlCHe-36" value="" style="edgeStyle=orthogonalEdgeStyle;rounded=0;orthogonalLoop=1;jettySize=auto;html=1;" parent="1" source="1oobGtyqgekjk0eKlCHe-5" target="1oobGtyqgekjk0eKlCHe-35" edge="1">
          <mxGeometry relative="1" as="geometry">
            <mxPoint x="680" y="200" as="sourcePoint" />
            <mxPoint x="827" y="200" as="targetPoint" />
          </mxGeometry>
        </mxCell>
        <mxCell id="1oobGtyqgekjk0eKlCHe-35" value="" style="ellipse;whiteSpace=wrap;html=1;aspect=fixed;" parent="1" vertex="1">
          <mxGeometry x="780" y="190" width="20" height="20" as="geometry" />
        </mxCell>
        <mxCell id="1oobGtyqgekjk0eKlCHe-49" style="edgeStyle=orthogonalEdgeStyle;rounded=0;orthogonalLoop=1;jettySize=auto;html=1;entryX=0.5;entryY=1;entryDx=0;entryDy=0;" parent="1" source="1oobGtyqgekjk0eKlCHe-43" target="1oobGtyqgekjk0eKlCHe-33" edge="1">
          <mxGeometry relative="1" as="geometry" />
        </mxCell>
        <mxCell id="1oobGtyqgekjk0eKlCHe-43" value="Velocity" style="rounded=0;whiteSpace=wrap;html=1;" parent="1" vertex="1">
          <mxGeometry x="987" y="370" width="80" height="60" as="geometry" />
        </mxCell>
        <mxCell id="1oobGtyqgekjk0eKlCHe-48" style="edgeStyle=orthogonalEdgeStyle;rounded=0;orthogonalLoop=1;jettySize=auto;html=1;entryX=0.5;entryY=1;entryDx=0;entryDy=0;" parent="1" source="1oobGtyqgekjk0eKlCHe-44" target="1oobGtyqgekjk0eKlCHe-34" edge="1">
          <mxGeometry relative="1" as="geometry" />
        </mxCell>
        <mxCell id="1oobGtyqgekjk0eKlCHe-44" value="Current" style="rounded=0;whiteSpace=wrap;html=1;" parent="1" vertex="1">
          <mxGeometry x="1147" y="270" width="80" height="60" as="geometry" />
        </mxCell>
        <mxCell id="1oobGtyqgekjk0eKlCHe-50" value="Ref&lt;div&gt;Acc&lt;/div&gt;" style="text;html=1;align=center;verticalAlign=middle;whiteSpace=wrap;rounded=0;" parent="1" vertex="1">
          <mxGeometry x="380" y="165" width="60" height="30" as="geometry" />
        </mxCell>
        <mxCell id="1oobGtyqgekjk0eKlCHe-51" value="Ref&lt;div&gt;Vel&lt;/div&gt;" style="text;html=1;align=center;verticalAlign=middle;whiteSpace=wrap;rounded=0;" parent="1" vertex="1">
          <mxGeometry x="530" y="165" width="60" height="30" as="geometry" />
        </mxCell>
        <mxCell id="1oobGtyqgekjk0eKlCHe-52" value="Ref&lt;div&gt;Pos&lt;/div&gt;" style="text;html=1;align=center;verticalAlign=middle;whiteSpace=wrap;rounded=0;" parent="1" vertex="1">
          <mxGeometry x="690" y="165" width="60" height="30" as="geometry" />
        </mxCell>
        <mxCell id="ED9p_ZeVLnc5XMbssxmR-3" value="Damping&lt;div&gt;Force&lt;/div&gt;" style="text;html=1;align=center;verticalAlign=middle;whiteSpace=wrap;rounded=0;" parent="1" vertex="1">
          <mxGeometry x="240" y="300" width="60" height="30" as="geometry" />
        </mxCell>
        <mxCell id="ED9p_ZeVLnc5XMbssxmR-4" value="Spring&lt;div&gt;Force&lt;/div&gt;" style="text;html=1;align=center;verticalAlign=middle;whiteSpace=wrap;rounded=0;" parent="1" vertex="1">
          <mxGeometry x="236" y="480" width="60" height="30" as="geometry" />
        </mxCell>
        <mxCell id="ED9p_ZeVLnc5XMbssxmR-7" style="edgeStyle=orthogonalEdgeStyle;rounded=0;orthogonalLoop=1;jettySize=auto;html=1;entryX=0.5;entryY=0;entryDx=0;entryDy=0;" parent="1" source="ED9p_ZeVLnc5XMbssxmR-6" target="1oobGtyqgekjk0eKlCHe-2" edge="1">
          <mxGeometry relative="1" as="geometry" />
        </mxCell>
        <mxCell id="ED9p_ZeVLnc5XMbssxmR-6" value="Input Force&lt;div&gt;(Pilot x)&lt;/div&gt;" style="rounded=0;whiteSpace=wrap;html=1;" parent="1" vertex="1">
          <mxGeometry x="40" y="70" width="120" height="60" as="geometry" />
        </mxCell>
        <mxCell id="ED9p_ZeVLnc5XMbssxmR-8" value="+" style="text;html=1;align=center;verticalAlign=middle;whiteSpace=wrap;rounded=0;" parent="1" vertex="1">
          <mxGeometry x="230" y="180" width="20" height="10" as="geometry" />
        </mxCell>
      </root>
    </mxGraphModel>
  </diagram>
</mxfile>
